<?xml version="1.0" encoding="UTF-8" standalone="no"?>
<!DOCTYPE svg PUBLIC "-//W3C//DTD SVG 1.1//EN"
 "http://www.w3.org/Graphics/SVG/1.1/DTD/svg11.dtd">
<!-- Generated by graphviz version 2.40.1 (20161225.0304)
 -->
<!-- Title: dependencies Pages: 1 -->
<svg width="1052pt" height="284pt"
 viewBox="0.00 0.00 1052.00 284.00" xmlns="http://www.w3.org/2000/svg" xmlns:xlink="http://www.w3.org/1999/xlink">
<g id="graph0" class="graph" transform="scale(1 1) rotate(0) translate(4 280)">
<title>dependencies</title>
<polygon fill="#ffffff" stroke="transparent" points="-4,4 -4,-280 1048,-280 1048,4 -4,4"/>
<text text-anchor="start" x="501.0091" y="-42.4" font-family="sans-serif" font-weight="bold" font-size="14.00" fill="#000000">Legend</text>
<polygon fill="#ffffb3" stroke="transparent" points="288,-10 288,-30 308,-30 308,-10 288,-10"/>
<text text-anchor="start" x="311.629" y="-15.4" font-family="sans-serif" font-size="14.00" fill="#000000"> &#160;Declarations</text>
<polygon fill="#8dd3c7" stroke="transparent" points="401,-10 401,-30 421,-30 421,-10 401,-10"/>
<text text-anchor="start" x="424.7251" y="-15.4" font-family="sans-serif" font-size="14.00" fill="#000000"> &#160;Module</text>
<polygon fill="#80b1d3" stroke="transparent" points="487,-10 487,-30 507,-30 507,-10 487,-10"/>
<text text-anchor="start" x="510.7812" y="-15.4" font-family="sans-serif" font-size="14.00" fill="#000000"> &#160;Bootstrap</text>
<polygon fill="#fdb462" stroke="transparent" points="584,-10 584,-30 604,-30 604,-10 584,-10"/>
<text text-anchor="start" x="607.6732" y="-15.4" font-family="sans-serif" font-size="14.00" fill="#000000"> &#160;Providers</text>
<polygon fill="#fb8072" stroke="transparent" points="680,-10 680,-30 700,-30 700,-10 680,-10"/>
<text text-anchor="start" x="703.7258" y="-15.4" font-family="sans-serif" font-size="14.00" fill="#000000"> &#160;Exports</text>
<g id="clust1" class="cluster">
<title>cluster_AppModule</title>
<polygon fill="none" stroke="#000000" stroke-dasharray="1,5" points="8,-70 8,-268 1036,-268 1036,-70 8,-70"/>
</g>
<g id="clust2" class="cluster">
<title>cluster_AppModule_declarations</title>
<polygon fill="none" stroke="#000000" points="168,-78 168,-130 1028,-130 1028,-78 168,-78"/>
</g>
<g id="clust9" class="cluster">
<title>cluster_AppModule_imports</title>
<polygon fill="none" stroke="#000000" points="16,-78 16,-130 160,-130 160,-78 16,-78"/>
</g>
<g id="clust11" class="cluster">
<title>cluster_AppModule_bootstrap</title>
<polygon fill="none" stroke="#000000" points="466,-208 466,-260 590,-260 590,-208 466,-208"/>
</g>
<!-- AppComponent -->
<g id="node1" class="node">
<title>AppComponent</title>
<polygon fill="#ffffb3" stroke="#000000" points="1019.9399,-122 914.0601,-122 914.0601,-86 1019.9399,-86 1019.9399,-122"/>
<text text-anchor="middle" x="967" y="-99.8" font-family="Times,serif" font-size="14.00" fill="#000000">AppComponent</text>
</g>
<!-- AppModule -->
<g id="node7" class="node">
<title>AppModule</title>
<polygon fill="#8dd3c7" stroke="#000000" points="569.6571,-187 566.6571,-191 545.6571,-191 542.6571,-187 486.3429,-187 486.3429,-151 569.6571,-151 569.6571,-187"/>
<text text-anchor="middle" x="528" y="-164.8" font-family="Times,serif" font-size="14.00" fill="#000000">AppModule</text>
</g>
<!-- AppComponent&#45;&gt;AppModule -->
<g id="edge1" class="edge">
<title>AppComponent&#45;&gt;AppModule</title>
<path fill="none" stroke="#000000" d="M967,-122.2921C967,-144.2057 967,-178 967,-178 967,-178 579.6958,-178 579.6958,-178"/>
<polygon fill="#000000" stroke="#000000" points="579.6959,-174.5001 569.6958,-178 579.6958,-181.5001 579.6959,-174.5001"/>
</g>
<!-- DetailProductComponent -->
<g id="node2" class="node">
<title>DetailProductComponent</title>
<polygon fill="#ffffb3" stroke="#000000" points="896.5884,-122 737.4116,-122 737.4116,-86 896.5884,-86 896.5884,-122"/>
<text text-anchor="middle" x="817" y="-99.8" font-family="Times,serif" font-size="14.00" fill="#000000">DetailProductComponent</text>
</g>
<!-- DetailProductComponent&#45;&gt;AppModule -->
<g id="edge2" class="edge">
<title>DetailProductComponent&#45;&gt;AppModule</title>
<path fill="none" stroke="#000000" d="M817,-122.1061C817,-141.3391 817,-169 817,-169 817,-169 579.7144,-169 579.7144,-169"/>
<polygon fill="#000000" stroke="#000000" points="579.7145,-165.5001 569.7144,-169 579.7144,-172.5001 579.7145,-165.5001"/>
</g>
<!-- FooterComponent -->
<g id="node3" class="node">
<title>FooterComponent</title>
<polygon fill="#ffffb3" stroke="#000000" points="719.8809,-122 602.1191,-122 602.1191,-86 719.8809,-86 719.8809,-122"/>
<text text-anchor="middle" x="661" y="-99.8" font-family="Times,serif" font-size="14.00" fill="#000000">FooterComponent</text>
</g>
<!-- FooterComponent&#45;&gt;AppModule -->
<g id="edge3" class="edge">
<title>FooterComponent&#45;&gt;AppModule</title>
<path fill="none" stroke="#000000" d="M661,-122.027C661,-138.3976 661,-160 661,-160 661,-160 579.7171,-160 579.7171,-160"/>
<polygon fill="#000000" stroke="#000000" points="579.7172,-156.5001 569.7171,-160 579.7171,-163.5001 579.7172,-156.5001"/>
</g>
<!-- FrontComponent -->
<g id="node4" class="node">
<title>FrontComponent</title>
<polygon fill="#ffffb3" stroke="#000000" points="583.6667,-122 472.3333,-122 472.3333,-86 583.6667,-86 583.6667,-122"/>
<text text-anchor="middle" x="528" y="-99.8" font-family="Times,serif" font-size="14.00" fill="#000000">FrontComponent</text>
</g>
<!-- FrontComponent&#45;&gt;AppModule -->
<g id="edge4" class="edge">
<title>FrontComponent&#45;&gt;AppModule</title>
<path fill="none" stroke="#000000" d="M528,-122.1061C528,-122.1061 528,-140.991 528,-140.991"/>
<polygon fill="#000000" stroke="#000000" points="524.5001,-140.9909 528,-150.991 531.5001,-140.991 524.5001,-140.9909"/>
</g>
<!-- HeaderComponent -->
<g id="node5" class="node">
<title>HeaderComponent</title>
<polygon fill="#ffffb3" stroke="#000000" points="453.7437,-122 332.2563,-122 332.2563,-86 453.7437,-86 453.7437,-122"/>
<text text-anchor="middle" x="393" y="-99.8" font-family="Times,serif" font-size="14.00" fill="#000000">HeaderComponent</text>
</g>
<!-- HeaderComponent&#45;&gt;AppModule -->
<g id="edge5" class="edge">
<title>HeaderComponent&#45;&gt;AppModule</title>
<path fill="none" stroke="#000000" d="M393,-122.027C393,-138.3976 393,-160 393,-160 393,-160 476.0252,-160 476.0252,-160"/>
<polygon fill="#000000" stroke="#000000" points="476.0252,-163.5001 486.0252,-160 476.0251,-156.5001 476.0252,-163.5001"/>
</g>
<!-- NotFoundComponent -->
<g id="node6" class="node">
<title>NotFoundComponent</title>
<polygon fill="#ffffb3" stroke="#000000" points="314.1122,-122 175.8878,-122 175.8878,-86 314.1122,-86 314.1122,-122"/>
<text text-anchor="middle" x="245" y="-99.8" font-family="Times,serif" font-size="14.00" fill="#000000">NotFoundComponent</text>
</g>
<!-- NotFoundComponent&#45;&gt;AppModule -->
<g id="edge6" class="edge">
<title>NotFoundComponent&#45;&gt;AppModule</title>
<path fill="none" stroke="#000000" d="M245,-122.1061C245,-141.3391 245,-169 245,-169 245,-169 476.2424,-169 476.2424,-169"/>
<polygon fill="#000000" stroke="#000000" points="476.2424,-172.5001 486.2424,-169 476.2423,-165.5001 476.2424,-172.5001"/>
</g>
<!-- AppComponent  -->
<g id="node9" class="node">
<title>AppComponent </title>
<polygon fill="#80b1d3" stroke="#000000" points="582.439,-252 473.561,-252 473.561,-216 582.439,-216 582.439,-252"/>
<text text-anchor="middle" x="528" y="-229.8" font-family="Times,serif" font-size="14.00" fill="#000000">AppComponent </text>
</g>
<!-- AppModule&#45;&gt;AppComponent  -->
<g id="edge8" class="edge">
<title>AppModule&#45;&gt;AppComponent </title>
<path fill="none" stroke="#000000" stroke-dasharray="1,5" d="M528,-187.1061C528,-187.1061 528,-205.991 528,-205.991"/>
<polygon fill="#000000" stroke="#000000" points="524.5001,-205.9909 528,-215.991 531.5001,-205.991 524.5001,-205.9909"/>
</g>
<!-- AppRoutingModule -->
<g id="node8" class="node">
<title>AppRoutingModule</title>
<polygon fill="#8dd3c7" stroke="#000000" points="152.2744,-122 149.2744,-126 128.2744,-126 125.2744,-122 23.7256,-122 23.7256,-86 152.2744,-86 152.2744,-122"/>
<text text-anchor="middle" x="88" y="-99.8" font-family="Times,serif" font-size="14.00" fill="#000000">AppRoutingModule</text>
</g>
<!-- AppRoutingModule&#45;&gt;AppModule -->
<g id="edge7" class="edge">
<title>AppRoutingModule&#45;&gt;AppModule</title>
<path fill="none" stroke="#000000" d="M88,-122.2921C88,-144.2057 88,-178 88,-178 88,-178 476.2092,-178 476.2092,-178"/>
<polygon fill="#000000" stroke="#000000" points="476.2092,-181.5001 486.2092,-178 476.2092,-174.5001 476.2092,-181.5001"/>
</g>
</g>
</svg>
